<?xml version="1.0" standalone="no"?>
<svg viewBox="0 0 200 200" xmlns="http://www.w3.org/2000/svg">
  <path fill="#9DDFD3" d="M34.3,-56.2C38.7,-50.7,32.4,-31.3,38,-17.7C43.6,-4.2,61.1,3.6,65.6,13.3C70.2,22.9,61.8,34.6,52.8,46.8C43.9,59.1,34.4,71.9,23.2,72C12,72.1,-0.9,59.5,-13.8,53C-26.8,46.5,-39.8,46.1,-52.7,40.5C-65.7,34.9,-78.6,24,-77.2,13C-75.9,1.9,-60.4,-9.3,-48.5,-16.6C-36.5,-24,-28.3,-27.6,-20.8,-31.7C-13.4,-35.8,-6.7,-40.5,4.2,-47C15,-53.5,30,-61.7,34.3,-56.2Z" transform="translate(100 100)" />
</svg>
